<mxfile host="app.diagrams.net" modified="2023-07-06T03:15:33.436Z" agent="Mozilla/5.0 (Windows NT 10.0; Win64; x64) AppleWebKit/537.36 (KHTML, like Gecko) Chrome/114.0.0.0 Safari/537.36" version="21.6.1" etag="u7xSdhPK7DgXqidE-_CK" type="github">
  <diagram name="第 1 页" id="_miCX2R_WOtisa4ARc_P">
    <mxGraphModel>
      <root>
        <mxCell id="0" />
        <mxCell id="1" parent="0" />
      </root>
    </mxGraphModel>
  </diagram>
</mxfile>
